<?xml version="1.0" standalone="no"?><!DOCTYPE svg PUBLIC "-//W3C//DTD SVG 20010904//EN"
    "http://www.w3.org/TR/2001/REC-SVG-20010904/DTD/svg10.dtd">
<svg version="1.0" xmlns="http://www.w3.org/2000/svg" width="586.000000pt" height="517.000000pt"
    viewBox="0 0 586.000000 517.000000" preserveAspectRatio="xMidYMid meet">

    <g transform="translate(0.000000,517.000000) scale(0.100000,-0.100000)" fill="#000000"
        stroke="none">
        <path d="M2938 4729 c-16 -9 -18 -31 -18 -234 0 -208 -1 -225 -17 -225 -65 -1
-163 -83 -163 -135 0 -67 57 -76 95 -15 29 46 82 65 155 57 66 -8 95 -24 113
-63 14 -27 22 -34 46 -34 40 0 56 29 41 74 -15 46 -57 83 -121 105 l-54 19 -3
218 c-1 140 -6 222 -13 231 -13 15 -37 16 -61 2z" />
        <path d="M2891 4079 c-99 -17 -175 -89 -155 -146 15 -43 54 -43 87 0 18 23 40
38 72 47 84 24 206 -4 218 -49 3 -11 17 -23 31 -27 73 -18 76 84 3 132 -65 43
-164 59 -256 43z" />
        <path d="M2837 3875 c-90 -25 -131 -70 -109 -120 15 -32 66 -35 82 -5 14 26
77 42 170 41 86 -1 127 -12 147 -41 16 -22 53 -26 71 -8 21 21 14 63 -16 91
-53 51 -232 73 -345 42z" />
        <path d="M2800 3690 c-116 -25 -194 -76 -206 -137 -12 -60 62 -79 91 -23 25
49 120 74 285 74 102 0 138 -4 198 -22 63 -20 75 -27 83 -51 20 -56 89 -39 89
21 0 44 -52 89 -136 118 -57 19 -94 23 -214 26 -80 2 -165 -1 -190 -6z" />
        <path d="M2815 3503 c-150 -24 -246 -94 -217 -157 15 -34 56 -35 77 -2 21 32
88 54 202 67 156 17 364 -17 376 -62 3 -10 17 -21 31 -25 60 -15 77 54 25 105
-51 51 -139 73 -314 76 -82 2 -163 1 -180 -2z" />
        <path d="M2810 3313 c-14 -2 -55 -11 -93 -19 -102 -24 -155 -85 -111 -128 22
-22 41 -20 74 8 39 32 139 50 285 50 155 -1 255 -18 290 -50 43 -39 85 -27 85
26 -1 52 -53 85 -169 106 -69 12 -300 17 -361 7z" />
        <path d="M2670 3105 c-235 -34 -387 -104 -405 -187 -14 -63 75 -96 91 -33 17
70 230 127 524 141 318 15 657 -52 698 -138 24 -52 92 -44 92 11 0 99 -166
177 -450 211 -117 14 -435 11 -550 -5z" />
        <path d="M2706 2899 c-250 -24 -410 -85 -436 -165 -25 -75 49 -114 85 -44 39
76 266 120 619 120 337 0 573 -47 609 -121 24 -48 87 -32 87 21 0 89 -145 152
-422 185 -142 16 -394 18 -542 4z" />
        <path d="M2725 2700 c-189 -21 -342 -59 -400 -99 -68 -46 -79 -101 -25 -119
24 -9 31 -6 59 23 27 29 46 37 138 58 154 37 261 47 481 47 349 0 576 -42 607
-112 11 -26 49 -35 71 -18 27 23 17 70 -24 110 -46 43 -131 73 -277 95 -118
19 -513 28 -630 15z" />
        <path d="M2695 2499 c-126 -11 -255 -33 -324 -55 -57 -19 -111 -64 -111 -94 0
-45 69 -68 90 -30 12 23 78 44 215 68 148 25 667 24 810 -2 126 -23 202 -51
210 -77 7 -22 53 -27 73 -7 36 36 -5 100 -86 133 -144 61 -563 91 -877 64z" />
        <path d="M2712 2300 c-295 -20 -434 -56 -440 -113 -7 -56 32 -72 90 -38 79 46
569 75 860 52 171 -14 329 -49 362 -80 40 -38 86 -22 86 30 0 43 -52 76 -163
104 -52 13 -139 28 -193 34 -144 15 -460 21 -602 11z" />
        <path d="M2473 2090 c-177 -14 -223 -33 -203 -86 9 -22 36 -38 50 -29 22 14
278 25 559 26 294 0 405 -6 571 -31 107 -17 119 -21 125 -41 9 -28 51 -35 75
-14 42 38 11 103 -60 124 -22 6 -100 21 -173 33 -110 17 -189 21 -482 23 -192
2 -400 -1 -462 -5z" />
        <path d="M2279 1874 c-11 -32 -2 -53 30 -67 17 -7 197 -13 546 -18 518 -6 670
-16 725 -44 42 -22 69 -19 82 10 9 19 8 29 -6 49 -37 57 -192 75 -676 82 -195
2 -431 6 -523 8 l-169 3 -9 -23z" />
        <path d="M2287 1702 c-23 -26 -21 -59 4 -73 55 -29 104 -32 604 -40 520 -7
659 -16 703 -45 21 -14 26 -14 48 1 15 9 24 25 24 40 0 80 -209 105 -861 105
-322 0 -405 3 -445 15 -61 18 -58 19 -77 -3z" />
        <path d="M2275 1506 c-23 -35 -7 -60 52 -82 40 -15 92 -18 326 -22 153 -2 289
-1 302 2 28 7 40 37 26 64 -9 18 -30 19 -288 25 -208 4 -291 10 -328 21 -66
21 -72 20 -90 -8z" />
        <path d="M1200 840 l0 -150 25 0 c24 0 25 3 25 54 l0 53 58 6 c70 7 102 37
102 95 -1 68 -37 92 -139 92 l-71 0 0 -150z m145 90 c21 -18 19 -57 -4 -70
-11 -5 -36 -10 -55 -10 -36 0 -36 0 -36 43 0 24 3 46 6 50 9 9 73 0 89 -13z" />
        <path d="M1510 840 l0 -150 25 0 c23 0 24 3 27 67 2 39 8 68 15 70 6 2 30 -28
53 -66 36 -63 44 -71 71 -71 28 0 29 2 18 23 -7 12 -25 42 -42 66 l-30 44 26
19 c35 25 43 69 21 107 -21 35 -38 41 -121 41 l-63 0 0 -150z m137 89 c7 -6
13 -15 13 -20 0 -19 -34 -39 -66 -39 -32 0 -34 2 -34 33 0 19 3 37 7 41 10 10
62 -1 80 -15z" />
        <path d="M1890 983 c-31 -11 -71 -58 -81 -96 -20 -74 12 -149 74 -178 73 -33
133 -22 187 35 36 40 41 138 8 186 -13 19 -35 40 -48 47 -25 13 -112 16 -140
6z m119 -53 c43 -23 52 -120 15 -161 -25 -27 -76 -34 -112 -15 -39 20 -52 44
-52 94 0 56 35 92 90 92 23 0 49 -4 59 -10z" />
        <path d="M2210 840 l0 -150 25 0 c24 0 25 3 25 55 l0 55 34 0 c109 0 165 93
97 161 -27 27 -35 29 -105 29 l-76 0 0 -150z m149 85 c11 -11 13 -21 5 -42 -8
-25 -15 -28 -57 -31 l-47 -3 0 49 0 50 42 -4 c24 -3 49 -11 57 -19z" />
        <path d="M2520 840 l0 -150 80 0 c79 0 80 0 80 25 0 24 -3 25 -55 25 l-55 0 0
40 0 40 50 0 c47 0 50 2 50 25 0 23 -3 25 -50 25 l-50 0 0 35 0 35 54 0 c40 0
55 4 60 16 11 28 -4 34 -85 34 l-79 0 0 -150z" />
        <path d="M2790 839 l0 -150 28 3 c26 3 27 5 30 71 4 85 14 84 65 -6 34 -59 42
-67 68 -67 16 0 29 3 29 8 0 4 -17 33 -39 65 l-38 58 28 29 c37 37 39 81 4
115 -21 22 -33 25 -100 25 l-75 0 0 -151z m138 87 c24 -24 4 -50 -42 -54 -36
-3 -36 -3 -36 37 0 39 1 41 31 37 17 -2 38 -11 47 -20z" />
        <path d="M3072 968 c2 -19 10 -24 41 -26 l37 -3 0 -125 0 -124 25 0 25 0 0
125 0 125 35 0 c31 0 35 3 35 25 l0 25 -101 0 c-98 0 -100 0 -97 -22z" />
        <path d="M3360 881 c0 -60 4 -121 9 -134 19 -49 117 -73 167 -41 36 24 44 46
50 135 8 112 0 149 -31 149 l-25 0 0 -108 c0 -93 -3 -111 -18 -125 -23 -21
-52 -22 -78 -3 -16 12 -19 29 -22 125 -4 110 -4 111 -28 111 -24 0 -24 0 -24
-109z" />
        <path d="M3700 839 l0 -150 28 3 27 3 5 104 5 104 65 -104 c59 -93 69 -104 98
-107 l32 -3 0 150 0 151 -30 0 -29 0 -3 -102 -3 -103 -65 103 c-61 95 -67 102
-97 102 l-33 0 0 -151z" />
        <path d="M4080 840 l0 -150 24 0 c33 0 35 11 34 168 l-1 132 -29 0 -28 0 0
-150z" />
        <path d="M4224 968 c2 -18 10 -24 39 -26 l37 -3 0 -125 0 -124 25 0 25 0 0
125 0 125 34 0 c34 0 47 13 38 38 -3 8 -33 12 -103 12 -97 0 -99 0 -95 -22z" />
        <path d="M4516 933 c20 -32 43 -67 50 -78 9 -12 14 -47 14 -92 0 -71 1 -73 25
-73 24 0 25 2 25 73 0 45 5 80 14 92 7 11 30 46 50 78 l37 57 -31 0 c-25 0
-35 -8 -61 -50 -17 -27 -32 -50 -34 -50 -2 0 -17 23 -34 50 -26 42 -36 50 -61
50 l-31 0 37 -57z" />
    </g>
</svg>
